{"title":"Goosebumps.2015.HDCAM.XVID.AC3-VAiN","uid":12647227,"size":1500992411,"categoryP":"video","categoryS":"movies","magnet":"?xt=urn:btih:77f972fd7ddbd344b0909eb8494db08c9ea0149a&amp;dn=Goosebumps.2015.HDCAM.XVID.AC3-VAiN&amp;tr=udp%3A%2F%2Ftracker.leechers-paradise.org%3A6969&amp;tr=udp%3A%2F%2Fzer0day.ch%3A1337&amp;tr=udp%3A%2F%2Fopen.demonii.com%3A1337&amp;tr=udp%3A%2F%2Ftracker.coppersurfer.tk%3A6969&amp;tr=udp%3A%2F%2Fexodus.desync.com%3A6969","seeders":0,"leechers":1,"uploader":"TvTeam","files":4,"time":1446073755,"description":"------------------------------------------------------------------------\r\n\r  https://www.torrenting.com\r\n\r\nSign up is OPEN - for time being. Come and have fun.\r\n\r\n------------------------------------------------------------------------[img]http://i.imgur.com/FJi0aRt.png[/img] \n\n[b]P R E S E N T S . . . .[/b] \n\nGoosebumps.2015.HDCAM.XVID.AC3-VAiN\n\niMDB........: http://www.imdb.com/title/tt1051904/\n\nPLOT........: A teenager teams up with the daughter of young adult horror author R. L. Stine after the writer's imaginary demons are set free on the town of Madison, Delaware.. \n\nT E C H N i C A L . i N F O . . .\n\nBasic Information\nFormat                      : AVI\nFormat/Info                 : Audio Video Interleave\nFile size                   : 1.37 GiB\nDuration                    : 1h 34mn\nOverall bit rate            : 2 085 Kbps\nWriting application         : Nandub v1.0rc2\nWriting library             : VirtualDub build 35491/release\n\nVideo\nID                          : 0\nFormat                      : MPEG-4 Visual\nFormat profile              : Advanced   \nFormat settings, BVOP       : 2\nFormat settings, QPel       : No\nFormat settings, GMC        : No warppoints\nFormat settings, Matrix     : Default (MPEG)\nMuxing mode                 : Packed bitstream\nCodec ID                    : XVID\nCodec ID/Hint               : XviD\nDuration                    : 1h 34mn\nBit rate                    : 1 817 Kbps\nWidth                       : 710 pixels\nHeight                      : 270 pixels\nDisplay aspect ratio        : 2.630\nFrame rate                  : 29.970 fps\nColor space                 : YUV\nChroma subsampling          : 4:2:0\nBit depth                   : 8 bits\nScan type                   : Progressive\nCompression mode            : Lossy\nBits/(Pixel*Frame)          : 0.316\nStream size                 : 1.19 GiB (87%)\nWriting library             : XviD 67\n\nAudio\nID                          : 1\nFormat                      : AC-3\nFormat/Info                 : Audio Coding 3\nMode extension              : CM (complete main)\nFormat settings, Endianness : Big\nCodec ID                    : 2000\nDuration                    : 1h 34mn\nBit rate mode               : Constant\nBit rate                    : 256 Kbps\nChannel(s)                  : 2 channels\nChannel positions           : Front: L R\nSampling rate               : 48.0 KHz\nCompression mode            : Lossy\nStream size                 : 172 MiB (12%)\nAlignment                   : Split accross interleaves\nInterleave, duration        : 33 ms (1.00 video frame)\nInterleave, preload duratio : 500 ms\n\nE N C O D E R S . N O T E S . . .       \n\nSOURCE......: ViDEO... Latino HDCAM/CM-8??\n............: AUDiO... UnKnOwN\nSAMPLE......: Yippers \nADDED NOTE..: rotated, chopped, cropped, resized. used our usual super magical VAiN special filters that no one else haz... LOL!!! ;)\nvideo is nice, has some hot spots, darkness and maybe some other issues. worked the filters to fix what could be fixed. audio was nice, think it's some sorta HQMiC or sum-chit... who knows. audio is audiable so who the &quot;F&quot; cares. \n\nsorry we don't have sum epic new cool poster cover that others seems to have stoled from Rx... all we gut is this nice epic encode and some true screenies. \n\nplease n'joy!\n\n\n\nS C R E E N . S H O T S . . .\n\n[img]http://i.imgur.com/8k8aL0p.png[/img]\n\n[img]http://i.imgur.com/wOJobJy.png[/img]\n\n[img]http://i.imgur.com/PKPYgHR.png[/img]\n\n[img]http://i.imgur.com/PbA8OaW.png[/img]\n\n[img]http://i.imgur.com/DemDrTb.png[/img]\n\n[img]http://i.imgur.com/uH3XEcp.png[/img]\n\n\n\n***DISCLAiMER*** as you can see there were no special friend that passed us some special vobs. what you see here is work put into a source. sum may like others may just hate...VAiN stands behind it's QUALiTY and don't claim to be professional HDTSCAMBDBRiPDVDRiPSCRHQ ENCODERS. just a cpl of fella's nipping at ya mumsknickers..... \n\n\nGREETZ:\n\nHive-CM8 | Rx | REFiLL | JEDI | bigjbrizzle1 | 26k |Unevano | EsX | TOFFEE\nGH0ST | ViSiON | Sugarb | CHA0S | STARLETS | GUSH | A.C.A.B. | jamie111 | TED |\n\n\nCheer's to our wives n girlfriends... may they neva meet :shifty","torrent":{"xt":"urn:btih:77f972fd7ddbd344b0909eb8494db08c9ea0149a","amp;dn":"Goosebumps.2015.HDCAM.XVID.AC3-VAiN","amp;tr":["udp%3A%2F%2Ftracker.leechers-paradise.org%3A6969","udp%3A%2F%2Fzer0day.ch%3A1337","udp%3A%2F%2Fopen.demonii.com%3A1337","udp%3A%2F%2Ftracker.coppersurfer.tk%3A6969","udp%3A%2F%2Fexodus.desync.com%3A6969"],"infoHash":"77f972fd7ddbd344b0909eb8494db08c9ea0149a","infoHashBuffer":{"type":"Buffer","data":[119,249,114,253,125,219,211,68,176,144,158,184,73,77,176,140,158,160,20,154]},"announce":[],"urlList":[]}}